<?xml version="1.0" encoding="utf-8" standalone="no"?>
<!DOCTYPE svg PUBLIC "-//W3C//DTD SVG 1.1//EN"
  "http://www.w3.org/Graphics/SVG/1.1/DTD/svg11.dtd">
<svg xmlns:xlink="http://www.w3.org/1999/xlink" width="709.495312pt" height="421.68025pt" viewBox="0 0 709.495312 421.68025" xmlns="http://www.w3.org/2000/svg" version="1.1">
 <metadata>
  <rdf:RDF xmlns:dc="http://purl.org/dc/elements/1.1/" xmlns:cc="http://creativecommons.org/ns#" xmlns:rdf="http://www.w3.org/1999/02/22-rdf-syntax-ns#">
   <cc:Work>
    <dc:type rdf:resource="http://purl.org/dc/dcmitype/StillImage"/>
    <dc:date>2026-03-22T15:37:32.299444</dc:date>
    <dc:format>image/svg+xml</dc:format>
    <dc:creator>
     <cc:Agent>
      <dc:title>Matplotlib v3.10.7, https://matplotlib.org/</dc:title>
     </cc:Agent>
    </dc:creator>
   </cc:Work>
  </rdf:RDF>
 </metadata>
 <defs>
  <style type="text/css">*{stroke-linejoin: round; stroke-linecap: butt}</style>
 </defs>
 <g id="figure_1">
  <g id="patch_1">
   <path d="M 0 421.68025 
L 709.495312 421.68025 
L 709.495312 0 
L 0 0 
z
" style="fill: #ffffff"/>
  </g>
  <g id="axes_1">
   <g id="patch_2">
    <path d="M 58.545313 383.102125 
L 702.295313 383.102125 
L 702.295313 22.318125 
L 58.545313 22.318125 
z
" style="fill: #ffffff"/>
   </g>
   <g id="matplotlib.axis_1">
    <g id="xtick_1">
     <g id="line2d_1">
      <path d="M 87.806676 383.102125 
L 87.806676 22.318125 
" clip-path="url(#paa33f8fa4f)" style="fill: none; stroke: #b0b0b0; stroke-opacity: 0.4; stroke-width: 0.8; stroke-linecap: square"/>
     </g>
     <g id="line2d_2">
      <defs>
       <path id="m9ae92295ad" d="M 0 0 
L 0 3.5 
" style="stroke: #000000; stroke-width: 0.8"/>
      </defs>
      <g>
       <use xlink:href="#m9ae92295ad" x="87.806676" y="383.102125" style="stroke: #000000; stroke-width: 0.8"/>
      </g>
     </g>
     <g id="text_1">
      <!-- −1.00 -->
      <g transform="translate(72.48402 397.700562) scale(0.1 -0.1)">
       <defs>
        <path id="DejaVuSans-2212" d="M 678 2272 
L 4684 2272 
L 4684 1741 
L 678 1741 
L 678 2272 
z
" transform="scale(0.015625)"/>
        <path id="DejaVuSans-31" d="M 794 531 
L 1825 531 
L 1825 4091 
L 703 3866 
L 703 4441 
L 1819 4666 
L 2450 4666 
L 2450 531 
L 3481 531 
L 3481 0 
L 794 0 
L 794 531 
z
" transform="scale(0.015625)"/>
        <path id="DejaVuSans-2e" d="M 684 794 
L 1344 794 
L 1344 0 
L 684 0 
L 684 794 
z
" transform="scale(0.015625)"/>
        <path id="DejaVuSans-30" d="M 2034 4250 
Q 1547 4250 1301 3770 
Q 1056 3291 1056 2328 
Q 1056 1369 1301 889 
Q 1547 409 2034 409 
Q 2525 409 2770 889 
Q 3016 1369 3016 2328 
Q 3016 3291 2770 3770 
Q 2525 4250 2034 4250 
z
M 2034 4750 
Q 2819 4750 3233 4129 
Q 3647 3509 3647 2328 
Q 3647 1150 3233 529 
Q 2819 -91 2034 -91 
Q 1250 -91 836 529 
Q 422 1150 422 2328 
Q 422 3509 836 4129 
Q 1250 4750 2034 4750 
z
" transform="scale(0.015625)"/>
       </defs>
       <use xlink:href="#DejaVuSans-2212"/>
       <use xlink:href="#DejaVuSans-31" transform="translate(83.789062 0)"/>
       <use xlink:href="#DejaVuSans-2e" transform="translate(147.412109 0)"/>
       <use xlink:href="#DejaVuSans-30" transform="translate(179.199219 0)"/>
       <use xlink:href="#DejaVuSans-30" transform="translate(242.822266 0)"/>
      </g>
     </g>
    </g>
    <g id="xtick_2">
     <g id="line2d_3">
      <path d="M 160.960085 383.102125 
L 160.960085 22.318125 
" clip-path="url(#paa33f8fa4f)" style="fill: none; stroke: #b0b0b0; stroke-opacity: 0.4; stroke-width: 0.8; stroke-linecap: square"/>
     </g>
     <g id="line2d_4">
      <g>
       <use xlink:href="#m9ae92295ad" x="160.960085" y="383.102125" style="stroke: #000000; stroke-width: 0.8"/>
      </g>
     </g>
     <g id="text_2">
      <!-- −0.75 -->
      <g transform="translate(145.637429 397.700562) scale(0.1 -0.1)">
       <defs>
        <path id="DejaVuSans-37" d="M 525 4666 
L 3525 4666 
L 3525 4397 
L 1831 0 
L 1172 0 
L 2766 4134 
L 525 4134 
L 525 4666 
z
" transform="scale(0.015625)"/>
        <path id="DejaVuSans-35" d="M 691 4666 
L 3169 4666 
L 3169 4134 
L 1269 4134 
L 1269 2991 
Q 1406 3038 1543 3061 
Q 1681 3084 1819 3084 
Q 2600 3084 3056 2656 
Q 3513 2228 3513 1497 
Q 3513 744 3044 326 
Q 2575 -91 1722 -91 
Q 1428 -91 1123 -41 
Q 819 9 494 109 
L 494 744 
Q 775 591 1075 516 
Q 1375 441 1709 441 
Q 2250 441 2565 725 
Q 2881 1009 2881 1497 
Q 2881 1984 2565 2268 
Q 2250 2553 1709 2553 
Q 1456 2553 1204 2497 
Q 953 2441 691 2322 
L 691 4666 
z
" transform="scale(0.015625)"/>
       </defs>
       <use xlink:href="#DejaVuSans-2212"/>
       <use xlink:href="#DejaVuSans-30" transform="translate(83.789062 0)"/>
       <use xlink:href="#DejaVuSans-2e" transform="translate(147.412109 0)"/>
       <use xlink:href="#DejaVuSans-37" transform="translate(179.199219 0)"/>
       <use xlink:href="#DejaVuSans-35" transform="translate(242.822266 0)"/>
      </g>
     </g>
    </g>
    <g id="xtick_3">
     <g id="line2d_5">
      <path d="M 234.113494 383.102125 
L 234.113494 22.318125 
" clip-path="url(#paa33f8fa4f)" style="fill: none; stroke: #b0b0b0; stroke-opacity: 0.4; stroke-width: 0.8; stroke-linecap: square"/>
     </g>
     <g id="line2d_6">
      <g>
       <use xlink:href="#m9ae92295ad" x="234.113494" y="383.102125" style="stroke: #000000; stroke-width: 0.8"/>
      </g>
     </g>
     <g id="text_3">
      <!-- −0.50 -->
      <g transform="translate(218.790838 397.700562) scale(0.1 -0.1)">
       <use xlink:href="#DejaVuSans-2212"/>
       <use xlink:href="#DejaVuSans-30" transform="translate(83.789062 0)"/>
       <use xlink:href="#DejaVuSans-2e" transform="translate(147.412109 0)"/>
       <use xlink:href="#DejaVuSans-35" transform="translate(179.199219 0)"/>
       <use xlink:href="#DejaVuSans-30" transform="translate(242.822266 0)"/>
      </g>
     </g>
    </g>
    <g id="xtick_4">
     <g id="line2d_7">
      <path d="M 307.266903 383.102125 
L 307.266903 22.318125 
" clip-path="url(#paa33f8fa4f)" style="fill: none; stroke: #b0b0b0; stroke-opacity: 0.4; stroke-width: 0.8; stroke-linecap: square"/>
     </g>
     <g id="line2d_8">
      <g>
       <use xlink:href="#m9ae92295ad" x="307.266903" y="383.102125" style="stroke: #000000; stroke-width: 0.8"/>
      </g>
     </g>
     <g id="text_4">
      <!-- −0.25 -->
      <g transform="translate(291.944247 397.700562) scale(0.1 -0.1)">
       <defs>
        <path id="DejaVuSans-32" d="M 1228 531 
L 3431 531 
L 3431 0 
L 469 0 
L 469 531 
Q 828 903 1448 1529 
Q 2069 2156 2228 2338 
Q 2531 2678 2651 2914 
Q 2772 3150 2772 3378 
Q 2772 3750 2511 3984 
Q 2250 4219 1831 4219 
Q 1534 4219 1204 4116 
Q 875 4013 500 3803 
L 500 4441 
Q 881 4594 1212 4672 
Q 1544 4750 1819 4750 
Q 2544 4750 2975 4387 
Q 3406 4025 3406 3419 
Q 3406 3131 3298 2873 
Q 3191 2616 2906 2266 
Q 2828 2175 2409 1742 
Q 1991 1309 1228 531 
z
" transform="scale(0.015625)"/>
       </defs>
       <use xlink:href="#DejaVuSans-2212"/>
       <use xlink:href="#DejaVuSans-30" transform="translate(83.789062 0)"/>
       <use xlink:href="#DejaVuSans-2e" transform="translate(147.412109 0)"/>
       <use xlink:href="#DejaVuSans-32" transform="translate(179.199219 0)"/>
       <use xlink:href="#DejaVuSans-35" transform="translate(242.822266 0)"/>
      </g>
     </g>
    </g>
    <g id="xtick_5">
     <g id="line2d_9">
      <path d="M 380.420313 383.102125 
L 380.420313 22.318125 
" clip-path="url(#paa33f8fa4f)" style="fill: none; stroke: #b0b0b0; stroke-opacity: 0.4; stroke-width: 0.8; stroke-linecap: square"/>
     </g>
     <g id="line2d_10">
      <g>
       <use xlink:href="#m9ae92295ad" x="380.420313" y="383.102125" style="stroke: #000000; stroke-width: 0.8"/>
      </g>
     </g>
     <g id="text_5">
      <!-- 0.00 -->
      <g transform="translate(369.2875 397.700562) scale(0.1 -0.1)">
       <use xlink:href="#DejaVuSans-30"/>
       <use xlink:href="#DejaVuSans-2e" transform="translate(63.623047 0)"/>
       <use xlink:href="#DejaVuSans-30" transform="translate(95.410156 0)"/>
       <use xlink:href="#DejaVuSans-30" transform="translate(159.033203 0)"/>
      </g>
     </g>
    </g>
    <g id="xtick_6">
     <g id="line2d_11">
      <path d="M 453.573722 383.102125 
L 453.573722 22.318125 
" clip-path="url(#paa33f8fa4f)" style="fill: none; stroke: #b0b0b0; stroke-opacity: 0.4; stroke-width: 0.8; stroke-linecap: square"/>
     </g>
     <g id="line2d_12">
      <g>
       <use xlink:href="#m9ae92295ad" x="453.573722" y="383.102125" style="stroke: #000000; stroke-width: 0.8"/>
      </g>
     </g>
     <g id="text_6">
      <!-- 0.25 -->
      <g transform="translate(442.440909 397.700562) scale(0.1 -0.1)">
       <use xlink:href="#DejaVuSans-30"/>
       <use xlink:href="#DejaVuSans-2e" transform="translate(63.623047 0)"/>
       <use xlink:href="#DejaVuSans-32" transform="translate(95.410156 0)"/>
       <use xlink:href="#DejaVuSans-35" transform="translate(159.033203 0)"/>
      </g>
     </g>
    </g>
    <g id="xtick_7">
     <g id="line2d_13">
      <path d="M 526.727131 383.102125 
L 526.727131 22.318125 
" clip-path="url(#paa33f8fa4f)" style="fill: none; stroke: #b0b0b0; stroke-opacity: 0.4; stroke-width: 0.8; stroke-linecap: square"/>
     </g>
     <g id="line2d_14">
      <g>
       <use xlink:href="#m9ae92295ad" x="526.727131" y="383.102125" style="stroke: #000000; stroke-width: 0.8"/>
      </g>
     </g>
     <g id="text_7">
      <!-- 0.50 -->
      <g transform="translate(515.594318 397.700562) scale(0.1 -0.1)">
       <use xlink:href="#DejaVuSans-30"/>
       <use xlink:href="#DejaVuSans-2e" transform="translate(63.623047 0)"/>
       <use xlink:href="#DejaVuSans-35" transform="translate(95.410156 0)"/>
       <use xlink:href="#DejaVuSans-30" transform="translate(159.033203 0)"/>
      </g>
     </g>
    </g>
    <g id="xtick_8">
     <g id="line2d_15">
      <path d="M 599.88054 383.102125 
L 599.88054 22.318125 
" clip-path="url(#paa33f8fa4f)" style="fill: none; stroke: #b0b0b0; stroke-opacity: 0.4; stroke-width: 0.8; stroke-linecap: square"/>
     </g>
     <g id="line2d_16">
      <g>
       <use xlink:href="#m9ae92295ad" x="599.88054" y="383.102125" style="stroke: #000000; stroke-width: 0.8"/>
      </g>
     </g>
     <g id="text_8">
      <!-- 0.75 -->
      <g transform="translate(588.747727 397.700562) scale(0.1 -0.1)">
       <use xlink:href="#DejaVuSans-30"/>
       <use xlink:href="#DejaVuSans-2e" transform="translate(63.623047 0)"/>
       <use xlink:href="#DejaVuSans-37" transform="translate(95.410156 0)"/>
       <use xlink:href="#DejaVuSans-35" transform="translate(159.033203 0)"/>
      </g>
     </g>
    </g>
    <g id="xtick_9">
     <g id="line2d_17">
      <path d="M 673.033949 383.102125 
L 673.033949 22.318125 
" clip-path="url(#paa33f8fa4f)" style="fill: none; stroke: #b0b0b0; stroke-opacity: 0.4; stroke-width: 0.8; stroke-linecap: square"/>
     </g>
     <g id="line2d_18">
      <g>
       <use xlink:href="#m9ae92295ad" x="673.033949" y="383.102125" style="stroke: #000000; stroke-width: 0.8"/>
      </g>
     </g>
     <g id="text_9">
      <!-- 1.00 -->
      <g transform="translate(661.901136 397.700562) scale(0.1 -0.1)">
       <use xlink:href="#DejaVuSans-31"/>
       <use xlink:href="#DejaVuSans-2e" transform="translate(63.623047 0)"/>
       <use xlink:href="#DejaVuSans-30" transform="translate(95.410156 0)"/>
       <use xlink:href="#DejaVuSans-30" transform="translate(159.033203 0)"/>
      </g>
     </g>
    </g>
    <g id="text_10">
     <!-- Offset Charge ($n_g$) -->
     <g transform="translate(334.670313 411.38025) scale(0.1 -0.1)">
      <defs>
       <path id="DejaVuSans-4f" d="M 2522 4238 
Q 1834 4238 1429 3725 
Q 1025 3213 1025 2328 
Q 1025 1447 1429 934 
Q 1834 422 2522 422 
Q 3209 422 3611 934 
Q 4013 1447 4013 2328 
Q 4013 3213 3611 3725 
Q 3209 4238 2522 4238 
z
M 2522 4750 
Q 3503 4750 4090 4092 
Q 4678 3434 4678 2328 
Q 4678 1225 4090 567 
Q 3503 -91 2522 -91 
Q 1538 -91 948 565 
Q 359 1222 359 2328 
Q 359 3434 948 4092 
Q 1538 4750 2522 4750 
z
" transform="scale(0.015625)"/>
       <path id="DejaVuSans-66" d="M 2375 4863 
L 2375 4384 
L 1825 4384 
Q 1516 4384 1395 4259 
Q 1275 4134 1275 3809 
L 1275 3500 
L 2222 3500 
L 2222 3053 
L 1275 3053 
L 1275 0 
L 697 0 
L 697 3053 
L 147 3053 
L 147 3500 
L 697 3500 
L 697 3744 
Q 697 4328 969 4595 
Q 1241 4863 1831 4863 
L 2375 4863 
z
" transform="scale(0.015625)"/>
       <path id="DejaVuSans-73" d="M 2834 3397 
L 2834 2853 
Q 2591 2978 2328 3040 
Q 2066 3103 1784 3103 
Q 1356 3103 1142 2972 
Q 928 2841 928 2578 
Q 928 2378 1081 2264 
Q 1234 2150 1697 2047 
L 1894 2003 
Q 2506 1872 2764 1633 
Q 3022 1394 3022 966 
Q 3022 478 2636 193 
Q 2250 -91 1575 -91 
Q 1294 -91 989 -36 
Q 684 19 347 128 
L 347 722 
Q 666 556 975 473 
Q 1284 391 1588 391 
Q 1994 391 2212 530 
Q 2431 669 2431 922 
Q 2431 1156 2273 1281 
Q 2116 1406 1581 1522 
L 1381 1569 
Q 847 1681 609 1914 
Q 372 2147 372 2553 
Q 372 3047 722 3315 
Q 1072 3584 1716 3584 
Q 2034 3584 2315 3537 
Q 2597 3491 2834 3397 
z
" transform="scale(0.015625)"/>
       <path id="DejaVuSans-65" d="M 3597 1894 
L 3597 1613 
L 953 1613 
Q 991 1019 1311 708 
Q 1631 397 2203 397 
Q 2534 397 2845 478 
Q 3156 559 3463 722 
L 3463 178 
Q 3153 47 2828 -22 
Q 2503 -91 2169 -91 
Q 1331 -91 842 396 
Q 353 884 353 1716 
Q 353 2575 817 3079 
Q 1281 3584 2069 3584 
Q 2775 3584 3186 3129 
Q 3597 2675 3597 1894 
z
M 3022 2063 
Q 3016 2534 2758 2815 
Q 2500 3097 2075 3097 
Q 1594 3097 1305 2825 
Q 1016 2553 972 2059 
L 3022 2063 
z
" transform="scale(0.015625)"/>
       <path id="DejaVuSans-74" d="M 1172 4494 
L 1172 3500 
L 2356 3500 
L 2356 3053 
L 1172 3053 
L 1172 1153 
Q 1172 725 1289 603 
Q 1406 481 1766 481 
L 2356 481 
L 2356 0 
L 1766 0 
Q 1100 0 847 248 
Q 594 497 594 1153 
L 594 3053 
L 172 3053 
L 172 3500 
L 594 3500 
L 594 4494 
L 1172 4494 
z
" transform="scale(0.015625)"/>
       <path id="DejaVuSans-20" transform="scale(0.015625)"/>
       <path id="DejaVuSans-43" d="M 4122 4306 
L 4122 3641 
Q 3803 3938 3442 4084 
Q 3081 4231 2675 4231 
Q 1875 4231 1450 3742 
Q 1025 3253 1025 2328 
Q 1025 1406 1450 917 
Q 1875 428 2675 428 
Q 3081 428 3442 575 
Q 3803 722 4122 1019 
L 4122 359 
Q 3791 134 3420 21 
Q 3050 -91 2638 -91 
Q 1578 -91 968 557 
Q 359 1206 359 2328 
Q 359 3453 968 4101 
Q 1578 4750 2638 4750 
Q 3056 4750 3426 4639 
Q 3797 4528 4122 4306 
z
" transform="scale(0.015625)"/>
       <path id="DejaVuSans-68" d="M 3513 2113 
L 3513 0 
L 2938 0 
L 2938 2094 
Q 2938 2591 2744 2837 
Q 2550 3084 2163 3084 
Q 1697 3084 1428 2787 
Q 1159 2491 1159 1978 
L 1159 0 
L 581 0 
L 581 4863 
L 1159 4863 
L 1159 2956 
Q 1366 3272 1645 3428 
Q 1925 3584 2291 3584 
Q 2894 3584 3203 3211 
Q 3513 2838 3513 2113 
z
" transform="scale(0.015625)"/>
       <path id="DejaVuSans-61" d="M 2194 1759 
Q 1497 1759 1228 1600 
Q 959 1441 959 1056 
Q 959 750 1161 570 
Q 1363 391 1709 391 
Q 2188 391 2477 730 
Q 2766 1069 2766 1631 
L 2766 1759 
L 2194 1759 
z
M 3341 1997 
L 3341 0 
L 2766 0 
L 2766 531 
Q 2569 213 2275 61 
Q 1981 -91 1556 -91 
Q 1019 -91 701 211 
Q 384 513 384 1019 
Q 384 1609 779 1909 
Q 1175 2209 1959 2209 
L 2766 2209 
L 2766 2266 
Q 2766 2663 2505 2880 
Q 2244 3097 1772 3097 
Q 1472 3097 1187 3025 
Q 903 2953 641 2809 
L 641 3341 
Q 956 3463 1253 3523 
Q 1550 3584 1831 3584 
Q 2591 3584 2966 3190 
Q 3341 2797 3341 1997 
z
" transform="scale(0.015625)"/>
       <path id="DejaVuSans-72" d="M 2631 2963 
Q 2534 3019 2420 3045 
Q 2306 3072 2169 3072 
Q 1681 3072 1420 2755 
Q 1159 2438 1159 1844 
L 1159 0 
L 581 0 
L 581 3500 
L 1159 3500 
L 1159 2956 
Q 1341 3275 1631 3429 
Q 1922 3584 2338 3584 
Q 2397 3584 2469 3576 
Q 2541 3569 2628 3553 
L 2631 2963 
z
" transform="scale(0.015625)"/>
       <path id="DejaVuSans-67" d="M 2906 1791 
Q 2906 2416 2648 2759 
Q 2391 3103 1925 3103 
Q 1463 3103 1205 2759 
Q 947 2416 947 1791 
Q 947 1169 1205 825 
Q 1463 481 1925 481 
Q 2391 481 2648 825 
Q 2906 1169 2906 1791 
z
M 3481 434 
Q 3481 -459 3084 -895 
Q 2688 -1331 1869 -1331 
Q 1566 -1331 1297 -1286 
Q 1028 -1241 775 -1147 
L 775 -588 
Q 1028 -725 1275 -790 
Q 1522 -856 1778 -856 
Q 2344 -856 2625 -561 
Q 2906 -266 2906 331 
L 2906 616 
Q 2728 306 2450 153 
Q 2172 0 1784 0 
Q 1141 0 747 490 
Q 353 981 353 1791 
Q 353 2603 747 3093 
Q 1141 3584 1784 3584 
Q 2172 3584 2450 3431 
Q 2728 3278 2906 2969 
L 2906 3500 
L 3481 3500 
L 3481 434 
z
" transform="scale(0.015625)"/>
       <path id="DejaVuSans-28" d="M 1984 4856 
Q 1566 4138 1362 3434 
Q 1159 2731 1159 2009 
Q 1159 1288 1364 580 
Q 1569 -128 1984 -844 
L 1484 -844 
Q 1016 -109 783 600 
Q 550 1309 550 2009 
Q 550 2706 781 3412 
Q 1013 4119 1484 4856 
L 1984 4856 
z
" transform="scale(0.015625)"/>
       <path id="DejaVuSans-Oblique-6e" d="M 3566 2113 
L 3156 0 
L 2578 0 
L 2988 2091 
Q 3016 2238 3031 2350 
Q 3047 2463 3047 2528 
Q 3047 2791 2881 2937 
Q 2716 3084 2419 3084 
Q 1956 3084 1622 2776 
Q 1288 2469 1184 1941 
L 800 0 
L 225 0 
L 903 3500 
L 1478 3500 
L 1363 2950 
Q 1603 3253 1940 3418 
Q 2278 3584 2650 3584 
Q 3113 3584 3367 3334 
Q 3622 3084 3622 2631 
Q 3622 2519 3608 2391 
Q 3594 2263 3566 2113 
z
" transform="scale(0.015625)"/>
       <path id="DejaVuSans-Oblique-67" d="M 3816 3500 
L 3219 434 
Q 3047 -456 2561 -893 
Q 2075 -1331 1253 -1331 
Q 950 -1331 690 -1286 
Q 431 -1241 206 -1147 
L 313 -588 
Q 525 -725 762 -790 
Q 1000 -856 1269 -856 
Q 1816 -856 2167 -557 
Q 2519 -259 2631 300 
L 2681 563 
Q 2441 288 2122 144 
Q 1803 0 1434 0 
Q 903 0 598 351 
Q 294 703 294 1319 
Q 294 1803 478 2267 
Q 663 2731 997 3091 
Q 1219 3328 1514 3456 
Q 1809 3584 2131 3584 
Q 2484 3584 2746 3420 
Q 3009 3256 3138 2956 
L 3238 3500 
L 3816 3500 
z
M 2950 2216 
Q 2950 2641 2750 2872 
Q 2550 3103 2181 3103 
Q 1953 3103 1747 3012 
Q 1541 2922 1394 2759 
Q 1156 2491 1023 2127 
Q 891 1763 891 1375 
Q 891 944 1092 712 
Q 1294 481 1672 481 
Q 2219 481 2584 976 
Q 2950 1472 2950 2216 
z
" transform="scale(0.015625)"/>
       <path id="DejaVuSans-29" d="M 513 4856 
L 1013 4856 
Q 1481 4119 1714 3412 
Q 1947 2706 1947 2009 
Q 1947 1309 1714 600 
Q 1481 -109 1013 -844 
L 513 -844 
Q 928 -128 1133 580 
Q 1338 1288 1338 2009 
Q 1338 2731 1133 3434 
Q 928 4138 513 4856 
z
" transform="scale(0.015625)"/>
      </defs>
      <use xlink:href="#DejaVuSans-4f" transform="translate(0 0.015625)"/>
      <use xlink:href="#DejaVuSans-66" transform="translate(78.710938 0.015625)"/>
      <use xlink:href="#DejaVuSans-66" transform="translate(113.916016 0.015625)"/>
      <use xlink:href="#DejaVuSans-73" transform="translate(149.121094 0.015625)"/>
      <use xlink:href="#DejaVuSans-65" transform="translate(201.220703 0.015625)"/>
      <use xlink:href="#DejaVuSans-74" transform="translate(262.744141 0.015625)"/>
      <use xlink:href="#DejaVuSans-20" transform="translate(301.953125 0.015625)"/>
      <use xlink:href="#DejaVuSans-43" transform="translate(333.740234 0.015625)"/>
      <use xlink:href="#DejaVuSans-68" transform="translate(403.564453 0.015625)"/>
      <use xlink:href="#DejaVuSans-61" transform="translate(466.943359 0.015625)"/>
      <use xlink:href="#DejaVuSans-72" transform="translate(528.222656 0.015625)"/>
      <use xlink:href="#DejaVuSans-67" transform="translate(569.335938 0.015625)"/>
      <use xlink:href="#DejaVuSans-65" transform="translate(632.8125 0.015625)"/>
      <use xlink:href="#DejaVuSans-20" transform="translate(694.335938 0.015625)"/>
      <use xlink:href="#DejaVuSans-28" transform="translate(726.123047 0.015625)"/>
      <use xlink:href="#DejaVuSans-Oblique-6e" transform="translate(765.136719 0.015625)"/>
      <use xlink:href="#DejaVuSans-Oblique-67" transform="translate(828.515625 -16.390625) scale(0.7)"/>
      <use xlink:href="#DejaVuSans-29" transform="translate(875.683594 0.015625)"/>
     </g>
    </g>
   </g>
   <g id="matplotlib.axis_2">
    <g id="ytick_1">
     <g id="line2d_19">
      <path d="M 58.545313 381.765533 
L 702.295313 381.765533 
" clip-path="url(#paa33f8fa4f)" style="fill: none; stroke: #b0b0b0; stroke-opacity: 0.4; stroke-width: 0.8; stroke-linecap: square"/>
     </g>
     <g id="line2d_20">
      <defs>
       <path id="m2922526007" d="M 0 0 
L -3.5 0 
" style="stroke: #000000; stroke-width: 0.8"/>
      </defs>
      <g>
       <use xlink:href="#m2922526007" x="58.545313" y="381.765533" style="stroke: #000000; stroke-width: 0.8"/>
      </g>
     </g>
     <g id="text_11">
      <!-- −0.08 -->
      <g transform="translate(20.9 385.564752) scale(0.1 -0.1)">
       <defs>
        <path id="DejaVuSans-38" d="M 2034 2216 
Q 1584 2216 1326 1975 
Q 1069 1734 1069 1313 
Q 1069 891 1326 650 
Q 1584 409 2034 409 
Q 2484 409 2743 651 
Q 3003 894 3003 1313 
Q 3003 1734 2745 1975 
Q 2488 2216 2034 2216 
z
M 1403 2484 
Q 997 2584 770 2862 
Q 544 3141 544 3541 
Q 544 4100 942 4425 
Q 1341 4750 2034 4750 
Q 2731 4750 3128 4425 
Q 3525 4100 3525 3541 
Q 3525 3141 3298 2862 
Q 3072 2584 2669 2484 
Q 3125 2378 3379 2068 
Q 3634 1759 3634 1313 
Q 3634 634 3220 271 
Q 2806 -91 2034 -91 
Q 1263 -91 848 271 
Q 434 634 434 1313 
Q 434 1759 690 2068 
Q 947 2378 1403 2484 
z
M 1172 3481 
Q 1172 3119 1398 2916 
Q 1625 2713 2034 2713 
Q 2441 2713 2670 2916 
Q 2900 3119 2900 3481 
Q 2900 3844 2670 4047 
Q 2441 4250 2034 4250 
Q 1625 4250 1398 4047 
Q 1172 3844 1172 3481 
z
" transform="scale(0.015625)"/>
       </defs>
       <use xlink:href="#DejaVuSans-2212"/>
       <use xlink:href="#DejaVuSans-30" transform="translate(83.789062 0)"/>
       <use xlink:href="#DejaVuSans-2e" transform="translate(147.412109 0)"/>
       <use xlink:href="#DejaVuSans-30" transform="translate(179.199219 0)"/>
       <use xlink:href="#DejaVuSans-38" transform="translate(242.822266 0)"/>
      </g>
     </g>
    </g>
    <g id="ytick_2">
     <g id="line2d_21">
      <path d="M 58.545313 340.716595 
L 702.295313 340.716595 
" clip-path="url(#paa33f8fa4f)" style="fill: none; stroke: #b0b0b0; stroke-opacity: 0.4; stroke-width: 0.8; stroke-linecap: square"/>
     </g>
     <g id="line2d_22">
      <g>
       <use xlink:href="#m2922526007" x="58.545313" y="340.716595" style="stroke: #000000; stroke-width: 0.8"/>
      </g>
     </g>
     <g id="text_12">
      <!-- −0.06 -->
      <g transform="translate(20.9 344.515814) scale(0.1 -0.1)">
       <defs>
        <path id="DejaVuSans-36" d="M 2113 2584 
Q 1688 2584 1439 2293 
Q 1191 2003 1191 1497 
Q 1191 994 1439 701 
Q 1688 409 2113 409 
Q 2538 409 2786 701 
Q 3034 994 3034 1497 
Q 3034 2003 2786 2293 
Q 2538 2584 2113 2584 
z
M 3366 4563 
L 3366 3988 
Q 3128 4100 2886 4159 
Q 2644 4219 2406 4219 
Q 1781 4219 1451 3797 
Q 1122 3375 1075 2522 
Q 1259 2794 1537 2939 
Q 1816 3084 2150 3084 
Q 2853 3084 3261 2657 
Q 3669 2231 3669 1497 
Q 3669 778 3244 343 
Q 2819 -91 2113 -91 
Q 1303 -91 875 529 
Q 447 1150 447 2328 
Q 447 3434 972 4092 
Q 1497 4750 2381 4750 
Q 2619 4750 2861 4703 
Q 3103 4656 3366 4563 
z
" transform="scale(0.015625)"/>
       </defs>
       <use xlink:href="#DejaVuSans-2212"/>
       <use xlink:href="#DejaVuSans-30" transform="translate(83.789062 0)"/>
       <use xlink:href="#DejaVuSans-2e" transform="translate(147.412109 0)"/>
       <use xlink:href="#DejaVuSans-30" transform="translate(179.199219 0)"/>
       <use xlink:href="#DejaVuSans-36" transform="translate(242.822266 0)"/>
      </g>
     </g>
    </g>
    <g id="ytick_3">
     <g id="line2d_23">
      <path d="M 58.545313 299.667656 
L 702.295313 299.667656 
" clip-path="url(#paa33f8fa4f)" style="fill: none; stroke: #b0b0b0; stroke-opacity: 0.4; stroke-width: 0.8; stroke-linecap: square"/>
     </g>
     <g id="line2d_24">
      <g>
       <use xlink:href="#m2922526007" x="58.545313" y="299.667656" style="stroke: #000000; stroke-width: 0.8"/>
      </g>
     </g>
     <g id="text_13">
      <!-- −0.04 -->
      <g transform="translate(20.9 303.466875) scale(0.1 -0.1)">
       <defs>
        <path id="DejaVuSans-34" d="M 2419 4116 
L 825 1625 
L 2419 1625 
L 2419 4116 
z
M 2253 4666 
L 3047 4666 
L 3047 1625 
L 3713 1625 
L 3713 1100 
L 3047 1100 
L 3047 0 
L 2419 0 
L 2419 1100 
L 313 1100 
L 313 1709 
L 2253 4666 
z
" transform="scale(0.015625)"/>
       </defs>
       <use xlink:href="#DejaVuSans-2212"/>
       <use xlink:href="#DejaVuSans-30" transform="translate(83.789062 0)"/>
       <use xlink:href="#DejaVuSans-2e" transform="translate(147.412109 0)"/>
       <use xlink:href="#DejaVuSans-30" transform="translate(179.199219 0)"/>
       <use xlink:href="#DejaVuSans-34" transform="translate(242.822266 0)"/>
      </g>
     </g>
    </g>
    <g id="ytick_4">
     <g id="line2d_25">
      <path d="M 58.545313 258.618718 
L 702.295313 258.618718 
" clip-path="url(#paa33f8fa4f)" style="fill: none; stroke: #b0b0b0; stroke-opacity: 0.4; stroke-width: 0.8; stroke-linecap: square"/>
     </g>
     <g id="line2d_26">
      <g>
       <use xlink:href="#m2922526007" x="58.545313" y="258.618718" style="stroke: #000000; stroke-width: 0.8"/>
      </g>
     </g>
     <g id="text_14">
      <!-- −0.02 -->
      <g transform="translate(20.9 262.417937) scale(0.1 -0.1)">
       <use xlink:href="#DejaVuSans-2212"/>
       <use xlink:href="#DejaVuSans-30" transform="translate(83.789062 0)"/>
       <use xlink:href="#DejaVuSans-2e" transform="translate(147.412109 0)"/>
       <use xlink:href="#DejaVuSans-30" transform="translate(179.199219 0)"/>
       <use xlink:href="#DejaVuSans-32" transform="translate(242.822266 0)"/>
      </g>
     </g>
    </g>
    <g id="ytick_5">
     <g id="line2d_27">
      <path d="M 58.545313 217.569779 
L 702.295313 217.569779 
" clip-path="url(#paa33f8fa4f)" style="fill: none; stroke: #b0b0b0; stroke-opacity: 0.4; stroke-width: 0.8; stroke-linecap: square"/>
     </g>
     <g id="line2d_28">
      <g>
       <use xlink:href="#m2922526007" x="58.545313" y="217.569779" style="stroke: #000000; stroke-width: 0.8"/>
      </g>
     </g>
     <g id="text_15">
      <!-- 0.00 -->
      <g transform="translate(29.279688 221.368998) scale(0.1 -0.1)">
       <use xlink:href="#DejaVuSans-30"/>
       <use xlink:href="#DejaVuSans-2e" transform="translate(63.623047 0)"/>
       <use xlink:href="#DejaVuSans-30" transform="translate(95.410156 0)"/>
       <use xlink:href="#DejaVuSans-30" transform="translate(159.033203 0)"/>
      </g>
     </g>
    </g>
    <g id="ytick_6">
     <g id="line2d_29">
      <path d="M 58.545313 176.520841 
L 702.295313 176.520841 
" clip-path="url(#paa33f8fa4f)" style="fill: none; stroke: #b0b0b0; stroke-opacity: 0.4; stroke-width: 0.8; stroke-linecap: square"/>
     </g>
     <g id="line2d_30">
      <g>
       <use xlink:href="#m2922526007" x="58.545313" y="176.520841" style="stroke: #000000; stroke-width: 0.8"/>
      </g>
     </g>
     <g id="text_16">
      <!-- 0.02 -->
      <g transform="translate(29.279688 180.320059) scale(0.1 -0.1)">
       <use xlink:href="#DejaVuSans-30"/>
       <use xlink:href="#DejaVuSans-2e" transform="translate(63.623047 0)"/>
       <use xlink:href="#DejaVuSans-30" transform="translate(95.410156 0)"/>
       <use xlink:href="#DejaVuSans-32" transform="translate(159.033203 0)"/>
      </g>
     </g>
    </g>
    <g id="ytick_7">
     <g id="line2d_31">
      <path d="M 58.545313 135.471902 
L 702.295313 135.471902 
" clip-path="url(#paa33f8fa4f)" style="fill: none; stroke: #b0b0b0; stroke-opacity: 0.4; stroke-width: 0.8; stroke-linecap: square"/>
     </g>
     <g id="line2d_32">
      <g>
       <use xlink:href="#m2922526007" x="58.545313" y="135.471902" style="stroke: #000000; stroke-width: 0.8"/>
      </g>
     </g>
     <g id="text_17">
      <!-- 0.04 -->
      <g transform="translate(29.279688 139.271121) scale(0.1 -0.1)">
       <use xlink:href="#DejaVuSans-30"/>
       <use xlink:href="#DejaVuSans-2e" transform="translate(63.623047 0)"/>
       <use xlink:href="#DejaVuSans-30" transform="translate(95.410156 0)"/>
       <use xlink:href="#DejaVuSans-34" transform="translate(159.033203 0)"/>
      </g>
     </g>
    </g>
    <g id="ytick_8">
     <g id="line2d_33">
      <path d="M 58.545313 94.422964 
L 702.295313 94.422964 
" clip-path="url(#paa33f8fa4f)" style="fill: none; stroke: #b0b0b0; stroke-opacity: 0.4; stroke-width: 0.8; stroke-linecap: square"/>
     </g>
     <g id="line2d_34">
      <g>
       <use xlink:href="#m2922526007" x="58.545313" y="94.422964" style="stroke: #000000; stroke-width: 0.8"/>
      </g>
     </g>
     <g id="text_18">
      <!-- 0.06 -->
      <g transform="translate(29.279688 98.222182) scale(0.1 -0.1)">
       <use xlink:href="#DejaVuSans-30"/>
       <use xlink:href="#DejaVuSans-2e" transform="translate(63.623047 0)"/>
       <use xlink:href="#DejaVuSans-30" transform="translate(95.410156 0)"/>
       <use xlink:href="#DejaVuSans-36" transform="translate(159.033203 0)"/>
      </g>
     </g>
    </g>
    <g id="ytick_9">
     <g id="line2d_35">
      <path d="M 58.545313 53.374025 
L 702.295313 53.374025 
" clip-path="url(#paa33f8fa4f)" style="fill: none; stroke: #b0b0b0; stroke-opacity: 0.4; stroke-width: 0.8; stroke-linecap: square"/>
     </g>
     <g id="line2d_36">
      <g>
       <use xlink:href="#m2922526007" x="58.545313" y="53.374025" style="stroke: #000000; stroke-width: 0.8"/>
      </g>
     </g>
     <g id="text_19">
      <!-- 0.08 -->
      <g transform="translate(29.279688 57.173244) scale(0.1 -0.1)">
       <use xlink:href="#DejaVuSans-30"/>
       <use xlink:href="#DejaVuSans-2e" transform="translate(63.623047 0)"/>
       <use xlink:href="#DejaVuSans-30" transform="translate(95.410156 0)"/>
       <use xlink:href="#DejaVuSans-38" transform="translate(159.033203 0)"/>
      </g>
     </g>
    </g>
    <g id="text_20">
     <!-- Frequency Variation $\Delta f_{01}$ (GHz) -->
     <g transform="translate(14.8 280.310125) rotate(-90) scale(0.1 -0.1)">
      <defs>
       <path id="DejaVuSans-46" d="M 628 4666 
L 3309 4666 
L 3309 4134 
L 1259 4134 
L 1259 2759 
L 3109 2759 
L 3109 2228 
L 1259 2228 
L 1259 0 
L 628 0 
L 628 4666 
z
" transform="scale(0.015625)"/>
       <path id="DejaVuSans-71" d="M 947 1747 
Q 947 1113 1208 752 
Q 1469 391 1925 391 
Q 2381 391 2643 752 
Q 2906 1113 2906 1747 
Q 2906 2381 2643 2742 
Q 2381 3103 1925 3103 
Q 1469 3103 1208 2742 
Q 947 2381 947 1747 
z
M 2906 525 
Q 2725 213 2448 61 
Q 2172 -91 1784 -91 
Q 1150 -91 751 415 
Q 353 922 353 1747 
Q 353 2572 751 3078 
Q 1150 3584 1784 3584 
Q 2172 3584 2448 3432 
Q 2725 3281 2906 2969 
L 2906 3500 
L 3481 3500 
L 3481 -1331 
L 2906 -1331 
L 2906 525 
z
" transform="scale(0.015625)"/>
       <path id="DejaVuSans-75" d="M 544 1381 
L 544 3500 
L 1119 3500 
L 1119 1403 
Q 1119 906 1312 657 
Q 1506 409 1894 409 
Q 2359 409 2629 706 
Q 2900 1003 2900 1516 
L 2900 3500 
L 3475 3500 
L 3475 0 
L 2900 0 
L 2900 538 
Q 2691 219 2414 64 
Q 2138 -91 1772 -91 
Q 1169 -91 856 284 
Q 544 659 544 1381 
z
M 1991 3584 
L 1991 3584 
z
" transform="scale(0.015625)"/>
       <path id="DejaVuSans-6e" d="M 3513 2113 
L 3513 0 
L 2938 0 
L 2938 2094 
Q 2938 2591 2744 2837 
Q 2550 3084 2163 3084 
Q 1697 3084 1428 2787 
Q 1159 2491 1159 1978 
L 1159 0 
L 581 0 
L 581 3500 
L 1159 3500 
L 1159 2956 
Q 1366 3272 1645 3428 
Q 1925 3584 2291 3584 
Q 2894 3584 3203 3211 
Q 3513 2838 3513 2113 
z
" transform="scale(0.015625)"/>
       <path id="DejaVuSans-63" d="M 3122 3366 
L 3122 2828 
Q 2878 2963 2633 3030 
Q 2388 3097 2138 3097 
Q 1578 3097 1268 2742 
Q 959 2388 959 1747 
Q 959 1106 1268 751 
Q 1578 397 2138 397 
Q 2388 397 2633 464 
Q 2878 531 3122 666 
L 3122 134 
Q 2881 22 2623 -34 
Q 2366 -91 2075 -91 
Q 1284 -91 818 406 
Q 353 903 353 1747 
Q 353 2603 823 3093 
Q 1294 3584 2113 3584 
Q 2378 3584 2631 3529 
Q 2884 3475 3122 3366 
z
" transform="scale(0.015625)"/>
       <path id="DejaVuSans-79" d="M 2059 -325 
Q 1816 -950 1584 -1140 
Q 1353 -1331 966 -1331 
L 506 -1331 
L 506 -850 
L 844 -850 
Q 1081 -850 1212 -737 
Q 1344 -625 1503 -206 
L 1606 56 
L 191 3500 
L 800 3500 
L 1894 763 
L 2988 3500 
L 3597 3500 
L 2059 -325 
z
" transform="scale(0.015625)"/>
       <path id="DejaVuSans-56" d="M 1831 0 
L 50 4666 
L 709 4666 
L 2188 738 
L 3669 4666 
L 4325 4666 
L 2547 0 
L 1831 0 
z
" transform="scale(0.015625)"/>
       <path id="DejaVuSans-69" d="M 603 3500 
L 1178 3500 
L 1178 0 
L 603 0 
L 603 3500 
z
M 603 4863 
L 1178 4863 
L 1178 4134 
L 603 4134 
L 603 4863 
z
" transform="scale(0.015625)"/>
       <path id="DejaVuSans-6f" d="M 1959 3097 
Q 1497 3097 1228 2736 
Q 959 2375 959 1747 
Q 959 1119 1226 758 
Q 1494 397 1959 397 
Q 2419 397 2687 759 
Q 2956 1122 2956 1747 
Q 2956 2369 2687 2733 
Q 2419 3097 1959 3097 
z
M 1959 3584 
Q 2709 3584 3137 3096 
Q 3566 2609 3566 1747 
Q 3566 888 3137 398 
Q 2709 -91 1959 -91 
Q 1206 -91 779 398 
Q 353 888 353 1747 
Q 353 2609 779 3096 
Q 1206 3584 1959 3584 
z
" transform="scale(0.015625)"/>
       <path id="DejaVuSans-394" d="M 2188 4044 
L 906 525 
L 3472 525 
L 2188 4044 
z
M 50 0 
L 1831 4666 
L 2547 4666 
L 4325 0 
L 50 0 
z
" transform="scale(0.015625)"/>
       <path id="DejaVuSans-Oblique-66" d="M 3059 4863 
L 2969 4384 
L 2419 4384 
Q 2106 4384 1964 4261 
Q 1822 4138 1753 3809 
L 1691 3500 
L 2638 3500 
L 2553 3053 
L 1606 3053 
L 1013 0 
L 434 0 
L 1031 3053 
L 481 3053 
L 563 3500 
L 1113 3500 
L 1159 3744 
Q 1278 4363 1576 4613 
Q 1875 4863 2516 4863 
L 3059 4863 
z
" transform="scale(0.015625)"/>
       <path id="DejaVuSans-47" d="M 3809 666 
L 3809 1919 
L 2778 1919 
L 2778 2438 
L 4434 2438 
L 4434 434 
Q 4069 175 3628 42 
Q 3188 -91 2688 -91 
Q 1594 -91 976 548 
Q 359 1188 359 2328 
Q 359 3472 976 4111 
Q 1594 4750 2688 4750 
Q 3144 4750 3555 4637 
Q 3966 4525 4313 4306 
L 4313 3634 
Q 3963 3931 3569 4081 
Q 3175 4231 2741 4231 
Q 1884 4231 1454 3753 
Q 1025 3275 1025 2328 
Q 1025 1384 1454 906 
Q 1884 428 2741 428 
Q 3075 428 3337 486 
Q 3600 544 3809 666 
z
" transform="scale(0.015625)"/>
       <path id="DejaVuSans-48" d="M 628 4666 
L 1259 4666 
L 1259 2753 
L 3553 2753 
L 3553 4666 
L 4184 4666 
L 4184 0 
L 3553 0 
L 3553 2222 
L 1259 2222 
L 1259 0 
L 628 0 
L 628 4666 
z
" transform="scale(0.015625)"/>
       <path id="DejaVuSans-7a" d="M 353 3500 
L 3084 3500 
L 3084 2975 
L 922 459 
L 3084 459 
L 3084 0 
L 275 0 
L 275 525 
L 2438 3041 
L 353 3041 
L 353 3500 
z
" transform="scale(0.015625)"/>
      </defs>
      <use xlink:href="#DejaVuSans-46" transform="translate(0 0.015625)"/>
      <use xlink:href="#DejaVuSans-72" transform="translate(57.519531 0.015625)"/>
      <use xlink:href="#DejaVuSans-65" transform="translate(98.632812 0.015625)"/>
      <use xlink:href="#DejaVuSans-71" transform="translate(160.15625 0.015625)"/>
      <use xlink:href="#DejaVuSans-75" transform="translate(223.632812 0.015625)"/>
      <use xlink:href="#DejaVuSans-65" transform="translate(287.011719 0.015625)"/>
      <use xlink:href="#DejaVuSans-6e" transform="translate(348.535156 0.015625)"/>
      <use xlink:href="#DejaVuSans-63" transform="translate(411.914062 0.015625)"/>
      <use xlink:href="#DejaVuSans-79" transform="translate(466.894531 0.015625)"/>
      <use xlink:href="#DejaVuSans-20" transform="translate(526.074219 0.015625)"/>
      <use xlink:href="#DejaVuSans-56" transform="translate(557.861328 0.015625)"/>
      <use xlink:href="#DejaVuSans-61" transform="translate(626.269531 0.015625)"/>
      <use xlink:href="#DejaVuSans-72" transform="translate(687.548828 0.015625)"/>
      <use xlink:href="#DejaVuSans-69" transform="translate(728.662109 0.015625)"/>
      <use xlink:href="#DejaVuSans-61" transform="translate(756.445312 0.015625)"/>
      <use xlink:href="#DejaVuSans-74" transform="translate(817.724609 0.015625)"/>
      <use xlink:href="#DejaVuSans-69" transform="translate(856.933594 0.015625)"/>
      <use xlink:href="#DejaVuSans-6f" transform="translate(884.716797 0.015625)"/>
      <use xlink:href="#DejaVuSans-6e" transform="translate(945.898438 0.015625)"/>
      <use xlink:href="#DejaVuSans-20" transform="translate(1009.277344 0.015625)"/>
      <use xlink:href="#DejaVuSans-394" transform="translate(1041.064453 0.015625)"/>
      <use xlink:href="#DejaVuSans-Oblique-66" transform="translate(1109.472656 0.015625)"/>
      <use xlink:href="#DejaVuSans-30" transform="translate(1144.677734 -16.390625) scale(0.7)"/>
      <use xlink:href="#DejaVuSans-31" transform="translate(1189.213867 -16.390625) scale(0.7)"/>
      <use xlink:href="#DejaVuSans-20" transform="translate(1236.484375 0.015625)"/>
      <use xlink:href="#DejaVuSans-28" transform="translate(1268.271484 0.015625)"/>
      <use xlink:href="#DejaVuSans-47" transform="translate(1307.285156 0.015625)"/>
      <use xlink:href="#DejaVuSans-48" transform="translate(1384.775391 0.015625)"/>
      <use xlink:href="#DejaVuSans-7a" transform="translate(1459.970703 0.015625)"/>
      <use xlink:href="#DejaVuSans-29" transform="translate(1512.460938 0.015625)"/>
     </g>
    </g>
   </g>
   <g id="line2d_37">
    <path d="M 87.806676 217.569779 
L 93.718063 217.569779 
L 99.629449 217.569779 
L 105.540836 217.569779 
L 111.452223 217.569779 
L 117.363609 217.569779 
L 123.274996 217.569779 
L 129.186382 217.569779 
L 135.097769 217.569779 
L 141.009155 217.569779 
L 146.920542 217.569779 
L 152.831929 217.569779 
L 158.743315 217.569779 
L 164.654702 217.569779 
L 170.566088 217.569779 
L 176.477475 217.569779 
L 182.388862 217.569779 
L 188.300248 217.569779 
L 194.211635 217.569779 
L 200.123021 217.569779 
L 206.034408 217.569779 
L 211.945795 217.569779 
L 217.857181 217.569779 
L 223.768568 217.569779 
L 229.679954 217.569779 
L 235.591341 217.569779 
L 241.502728 217.569779 
L 247.414114 217.569779 
L 253.325501 217.569779 
L 259.236887 217.569779 
L 265.148274 217.569779 
L 271.059661 217.569779 
L 276.971047 217.569779 
L 282.882434 217.569779 
L 288.79382 217.569779 
L 294.705207 217.569779 
L 300.616593 217.569779 
L 306.52798 217.569779 
L 312.439367 217.569779 
L 318.350753 217.569779 
L 324.26214 217.569779 
L 330.173526 217.569779 
L 336.084913 217.569779 
L 341.9963 217.569779 
L 347.907686 217.569779 
L 353.819073 217.569779 
L 359.730459 217.569779 
L 365.641846 217.569779 
L 371.553233 217.569779 
L 377.464619 217.569779 
L 383.376006 217.569779 
L 389.287392 217.569779 
L 395.198779 217.569779 
L 401.110166 217.569779 
L 407.021552 217.569779 
L 412.932939 217.569779 
L 418.844325 217.569779 
L 424.755712 217.569779 
L 430.667099 217.569779 
L 436.578485 217.569779 
L 442.489872 217.569779 
L 448.401258 217.569779 
L 454.312645 217.569779 
L 460.224032 217.569779 
L 466.135418 217.569779 
L 472.046805 217.569779 
L 477.958191 217.569779 
L 483.869578 217.569779 
L 489.780964 217.569779 
L 495.692351 217.569779 
L 501.603738 217.569779 
L 507.515124 217.569779 
L 513.426511 217.569779 
L 519.337897 217.569779 
L 525.249284 217.569779 
L 531.160671 217.569779 
L 537.072057 217.569779 
L 542.983444 217.569779 
L 548.89483 217.569779 
L 554.806217 217.569779 
L 560.717604 217.569779 
L 566.62899 217.569779 
L 572.540377 217.569779 
L 578.451763 217.569779 
L 584.36315 217.569779 
L 590.274537 217.569779 
L 596.185923 217.569779 
L 602.09731 217.569779 
L 608.008696 217.569779 
L 613.920083 217.569779 
L 619.83147 217.569779 
L 625.742856 217.569779 
L 631.654243 217.569779 
L 637.565629 217.569779 
L 643.477016 217.569779 
L 649.388402 217.569779 
L 655.299789 217.569779 
L 661.211176 217.569779 
L 667.122562 217.569779 
L 673.033949 217.569779 
" clip-path="url(#paa33f8fa4f)" style="fill: none; stroke: #1f77b4; stroke-width: 2; stroke-linecap: square"/>
   </g>
   <g id="line2d_38">
    <path d="M 87.806676 217.563127 
L 93.718063 217.563181 
L 99.629449 217.563342 
L 105.540836 217.563608 
L 111.452223 217.563974 
L 117.363609 217.564435 
L 123.274996 217.564983 
L 129.186382 217.565609 
L 135.097769 217.566304 
L 141.009155 217.567055 
L 146.920542 217.567851 
L 152.831929 217.56868 
L 158.743315 217.569527 
L 164.654702 217.570379 
L 170.566088 217.571223 
L 176.477475 217.572044 
L 182.388862 217.57283 
L 188.300248 217.573569 
L 194.211635 217.574247 
L 200.123021 217.574854 
L 206.034408 217.575381 
L 211.945795 217.575819 
L 217.857181 217.576161 
L 223.768568 217.576401 
L 229.679954 217.576536 
L 235.591341 217.576563 
L 241.502728 217.576482 
L 247.414114 217.576294 
L 253.325501 217.576002 
L 259.236887 217.575612 
L 265.148274 217.575129 
L 271.059661 217.57456 
L 276.971047 217.573916 
L 282.882434 217.573206 
L 288.79382 217.572443 
L 294.705207 217.571637 
L 300.616593 217.570803 
L 306.52798 217.569953 
L 312.439367 217.569102 
L 318.350753 217.568262 
L 324.26214 217.567448 
L 330.173526 217.566673 
L 336.084913 217.565949 
L 341.9963 217.565287 
L 347.907686 217.564699 
L 353.819073 217.564193 
L 359.730459 217.563779 
L 365.641846 217.563462 
L 371.553233 217.563248 
L 377.464619 217.56314 
L 383.376006 217.56314 
L 389.287392 217.563248 
L 395.198779 217.563462 
L 401.110166 217.563779 
L 407.021552 217.564193 
L 412.932939 217.564699 
L 418.844325 217.565287 
L 424.755712 217.565949 
L 430.667099 217.566673 
L 436.578485 217.567448 
L 442.489872 217.568262 
L 448.401258 217.569102 
L 454.312645 217.569953 
L 460.224032 217.570803 
L 466.135418 217.571637 
L 472.046805 217.572443 
L 477.958191 217.573206 
L 483.869578 217.573916 
L 489.780964 217.57456 
L 495.692351 217.575129 
L 501.603738 217.575612 
L 507.515124 217.576002 
L 513.426511 217.576294 
L 519.337897 217.576482 
L 525.249284 217.576563 
L 531.160671 217.576536 
L 537.072057 217.576401 
L 542.983444 217.576161 
L 548.89483 217.575819 
L 554.806217 217.575381 
L 560.717604 217.574854 
L 566.62899 217.574247 
L 572.540377 217.573569 
L 578.451763 217.57283 
L 584.36315 217.572044 
L 590.274537 217.571223 
L 596.185923 217.570379 
L 602.09731 217.569527 
L 608.008696 217.56868 
L 613.920083 217.567851 
L 619.83147 217.567055 
L 625.742856 217.566304 
L 631.654243 217.565609 
L 637.565629 217.564983 
L 643.477016 217.564435 
L 649.388402 217.563974 
L 655.299789 217.563608 
L 661.211176 217.563342 
L 667.122562 217.563181 
L 673.033949 217.563127 
" clip-path="url(#paa33f8fa4f)" style="fill: none; stroke: #ff7f0e; stroke-width: 2; stroke-linecap: square"/>
   </g>
   <g id="line2d_39">
    <path d="M 87.806676 38.717398 
L 93.718063 40.903446 
L 99.629449 47.318818 
L 105.540836 57.567584 
L 111.452223 71.081816 
L 117.363609 87.216312 
L 123.274996 105.326642 
L 129.186382 124.818049 
L 135.097769 145.167604 
L 141.009155 165.928193 
L 146.920542 186.722742 
L 152.831929 207.23452 
L 158.743315 227.196871 
L 164.654702 246.38395 
L 170.566088 264.603021 
L 176.477475 281.688377 
L 182.388862 297.496711 
L 188.300248 311.903706 
L 194.211635 324.801593 
L 200.123021 336.097485 
L 206.034408 345.712272 
L 211.945795 353.57996 
L 217.857181 359.647291 
L 223.768568 363.87358 
L 229.679954 366.230654 
L 235.591341 366.702852 
L 241.502728 365.287042 
L 247.414114 361.99262 
L 253.325501 356.841506 
L 259.236887 349.868128 
L 265.148274 341.119443 
L 271.059661 330.655046 
L 276.971047 318.547427 
L 282.882434 304.882476 
L 288.79382 289.760354 
L 294.705207 273.29685 
L 300.616593 255.625416 
L 306.52798 236.900063 
L 312.439367 217.299347 
L 318.350753 197.031701 
L 324.26214 176.342309 
L 330.173526 155.521622 
L 336.084913 134.915242 
L 341.9963 114.934191 
L 347.907686 96.063206 
L 353.819073 78.862547 
L 359.730459 63.956078 
L 365.641846 51.996625 
L 371.553233 43.60207 
L 377.464619 39.26621 
L 383.376006 39.26621 
L 389.287392 43.60207 
L 395.198779 51.996625 
L 401.110166 63.956078 
L 407.021552 78.862547 
L 412.932939 96.063206 
L 418.844325 114.934191 
L 424.755712 134.915242 
L 430.667099 155.521622 
L 436.578485 176.342309 
L 442.489872 197.031701 
L 448.401258 217.299347 
L 454.312645 236.900063 
L 460.224032 255.625416 
L 466.135418 273.29685 
L 472.046805 289.760354 
L 477.958191 304.882476 
L 483.869578 318.547427 
L 489.780964 330.655046 
L 495.692351 341.119443 
L 501.603738 349.868128 
L 507.515124 356.841506 
L 513.426511 361.99262 
L 519.337897 365.287042 
L 525.249284 366.702852 
L 531.160671 366.230654 
L 537.072057 363.87358 
L 542.983444 359.647291 
L 548.89483 353.57996 
L 554.806217 345.712272 
L 560.717604 336.097485 
L 566.62899 324.801593 
L 572.540377 311.903706 
L 578.451763 297.496711 
L 584.36315 281.688377 
L 590.274537 264.603021 
L 596.185923 246.38395 
L 602.09731 227.196871 
L 608.008696 207.23452 
L 613.920083 186.722742 
L 619.83147 165.928193 
L 625.742856 145.167604 
L 631.654243 124.818049 
L 637.565629 105.326642 
L 643.477016 87.216312 
L 649.388402 71.081816 
L 655.299789 57.567584 
L 661.211176 47.318818 
L 667.122562 40.903446 
L 673.033949 38.717398 
" clip-path="url(#paa33f8fa4f)" style="fill: none; stroke: #2ca02c; stroke-width: 2; stroke-linecap: square"/>
   </g>
   <g id="line2d_40">
    <path d="M 58.545313 217.569779 
L 702.295313 217.569779 
" clip-path="url(#paa33f8fa4f)" style="fill: none; stroke-dasharray: 1.85,0.8; stroke-dashoffset: 0; stroke: #000000; stroke-width: 0.5"/>
   </g>
   <g id="patch_3">
    <path d="M 58.545313 383.102125 
L 58.545313 22.318125 
" style="fill: none; stroke: #000000; stroke-width: 0.8; stroke-linejoin: miter; stroke-linecap: square"/>
   </g>
   <g id="patch_4">
    <path d="M 702.295313 383.102125 
L 702.295313 22.318125 
" style="fill: none; stroke: #000000; stroke-width: 0.8; stroke-linejoin: miter; stroke-linecap: square"/>
   </g>
   <g id="patch_5">
    <path d="M 58.545312 383.102125 
L 702.295313 383.102125 
" style="fill: none; stroke: #000000; stroke-width: 0.8; stroke-linejoin: miter; stroke-linecap: square"/>
   </g>
   <g id="patch_6">
    <path d="M 58.545312 22.318125 
L 702.295313 22.318125 
" style="fill: none; stroke: #000000; stroke-width: 0.8; stroke-linejoin: miter; stroke-linecap: square"/>
   </g>
   <g id="text_21">
    <!-- Charge Dispersion Relation: Qubit Frequency vs. Offset Charge -->
    <g transform="translate(191.86375 16.318125) scale(0.12 -0.12)">
     <defs>
      <path id="DejaVuSans-44" d="M 1259 4147 
L 1259 519 
L 2022 519 
Q 2988 519 3436 956 
Q 3884 1394 3884 2338 
Q 3884 3275 3436 3711 
Q 2988 4147 2022 4147 
L 1259 4147 
z
M 628 4666 
L 1925 4666 
Q 3281 4666 3915 4102 
Q 4550 3538 4550 2338 
Q 4550 1131 3912 565 
Q 3275 0 1925 0 
L 628 0 
L 628 4666 
z
" transform="scale(0.015625)"/>
      <path id="DejaVuSans-70" d="M 1159 525 
L 1159 -1331 
L 581 -1331 
L 581 3500 
L 1159 3500 
L 1159 2969 
Q 1341 3281 1617 3432 
Q 1894 3584 2278 3584 
Q 2916 3584 3314 3078 
Q 3713 2572 3713 1747 
Q 3713 922 3314 415 
Q 2916 -91 2278 -91 
Q 1894 -91 1617 61 
Q 1341 213 1159 525 
z
M 3116 1747 
Q 3116 2381 2855 2742 
Q 2594 3103 2138 3103 
Q 1681 3103 1420 2742 
Q 1159 2381 1159 1747 
Q 1159 1113 1420 752 
Q 1681 391 2138 391 
Q 2594 391 2855 752 
Q 3116 1113 3116 1747 
z
" transform="scale(0.015625)"/>
      <path id="DejaVuSans-52" d="M 2841 2188 
Q 3044 2119 3236 1894 
Q 3428 1669 3622 1275 
L 4263 0 
L 3584 0 
L 2988 1197 
Q 2756 1666 2539 1819 
Q 2322 1972 1947 1972 
L 1259 1972 
L 1259 0 
L 628 0 
L 628 4666 
L 2053 4666 
Q 2853 4666 3247 4331 
Q 3641 3997 3641 3322 
Q 3641 2881 3436 2590 
Q 3231 2300 2841 2188 
z
M 1259 4147 
L 1259 2491 
L 2053 2491 
Q 2509 2491 2742 2702 
Q 2975 2913 2975 3322 
Q 2975 3731 2742 3939 
Q 2509 4147 2053 4147 
L 1259 4147 
z
" transform="scale(0.015625)"/>
      <path id="DejaVuSans-6c" d="M 603 4863 
L 1178 4863 
L 1178 0 
L 603 0 
L 603 4863 
z
" transform="scale(0.015625)"/>
      <path id="DejaVuSans-3a" d="M 750 794 
L 1409 794 
L 1409 0 
L 750 0 
L 750 794 
z
M 750 3309 
L 1409 3309 
L 1409 2516 
L 750 2516 
L 750 3309 
z
" transform="scale(0.015625)"/>
      <path id="DejaVuSans-51" d="M 2522 4238 
Q 1834 4238 1429 3725 
Q 1025 3213 1025 2328 
Q 1025 1447 1429 934 
Q 1834 422 2522 422 
Q 3209 422 3611 934 
Q 4013 1447 4013 2328 
Q 4013 3213 3611 3725 
Q 3209 4238 2522 4238 
z
M 3406 84 
L 4238 -825 
L 3475 -825 
L 2784 -78 
Q 2681 -84 2626 -87 
Q 2572 -91 2522 -91 
Q 1538 -91 948 567 
Q 359 1225 359 2328 
Q 359 3434 948 4092 
Q 1538 4750 2522 4750 
Q 3503 4750 4090 4092 
Q 4678 3434 4678 2328 
Q 4678 1516 4351 937 
Q 4025 359 3406 84 
z
" transform="scale(0.015625)"/>
      <path id="DejaVuSans-62" d="M 3116 1747 
Q 3116 2381 2855 2742 
Q 2594 3103 2138 3103 
Q 1681 3103 1420 2742 
Q 1159 2381 1159 1747 
Q 1159 1113 1420 752 
Q 1681 391 2138 391 
Q 2594 391 2855 752 
Q 3116 1113 3116 1747 
z
M 1159 2969 
Q 1341 3281 1617 3432 
Q 1894 3584 2278 3584 
Q 2916 3584 3314 3078 
Q 3713 2572 3713 1747 
Q 3713 922 3314 415 
Q 2916 -91 2278 -91 
Q 1894 -91 1617 61 
Q 1341 213 1159 525 
L 1159 0 
L 581 0 
L 581 4863 
L 1159 4863 
L 1159 2969 
z
" transform="scale(0.015625)"/>
      <path id="DejaVuSans-76" d="M 191 3500 
L 800 3500 
L 1894 563 
L 2988 3500 
L 3597 3500 
L 2284 0 
L 1503 0 
L 191 3500 
z
" transform="scale(0.015625)"/>
     </defs>
     <use xlink:href="#DejaVuSans-43"/>
     <use xlink:href="#DejaVuSans-68" transform="translate(69.824219 0)"/>
     <use xlink:href="#DejaVuSans-61" transform="translate(133.203125 0)"/>
     <use xlink:href="#DejaVuSans-72" transform="translate(194.482422 0)"/>
     <use xlink:href="#DejaVuSans-67" transform="translate(233.845703 0)"/>
     <use xlink:href="#DejaVuSans-65" transform="translate(297.322266 0)"/>
     <use xlink:href="#DejaVuSans-20" transform="translate(358.845703 0)"/>
     <use xlink:href="#DejaVuSans-44" transform="translate(390.632812 0)"/>
     <use xlink:href="#DejaVuSans-69" transform="translate(467.634766 0)"/>
     <use xlink:href="#DejaVuSans-73" transform="translate(495.417969 0)"/>
     <use xlink:href="#DejaVuSans-70" transform="translate(547.517578 0)"/>
     <use xlink:href="#DejaVuSans-65" transform="translate(610.994141 0)"/>
     <use xlink:href="#DejaVuSans-72" transform="translate(672.517578 0)"/>
     <use xlink:href="#DejaVuSans-73" transform="translate(713.630859 0)"/>
     <use xlink:href="#DejaVuSans-69" transform="translate(765.730469 0)"/>
     <use xlink:href="#DejaVuSans-6f" transform="translate(793.513672 0)"/>
     <use xlink:href="#DejaVuSans-6e" transform="translate(854.695312 0)"/>
     <use xlink:href="#DejaVuSans-20" transform="translate(918.074219 0)"/>
     <use xlink:href="#DejaVuSans-52" transform="translate(949.861328 0)"/>
     <use xlink:href="#DejaVuSans-65" transform="translate(1014.84375 0)"/>
     <use xlink:href="#DejaVuSans-6c" transform="translate(1076.367188 0)"/>
     <use xlink:href="#DejaVuSans-61" transform="translate(1104.150391 0)"/>
     <use xlink:href="#DejaVuSans-74" transform="translate(1165.429688 0)"/>
     <use xlink:href="#DejaVuSans-69" transform="translate(1204.638672 0)"/>
     <use xlink:href="#DejaVuSans-6f" transform="translate(1232.421875 0)"/>
     <use xlink:href="#DejaVuSans-6e" transform="translate(1293.603516 0)"/>
     <use xlink:href="#DejaVuSans-3a" transform="translate(1356.982422 0)"/>
     <use xlink:href="#DejaVuSans-20" transform="translate(1390.673828 0)"/>
     <use xlink:href="#DejaVuSans-51" transform="translate(1422.460938 0)"/>
     <use xlink:href="#DejaVuSans-75" transform="translate(1501.171875 0)"/>
     <use xlink:href="#DejaVuSans-62" transform="translate(1564.550781 0)"/>
     <use xlink:href="#DejaVuSans-69" transform="translate(1628.027344 0)"/>
     <use xlink:href="#DejaVuSans-74" transform="translate(1655.810547 0)"/>
     <use xlink:href="#DejaVuSans-20" transform="translate(1695.019531 0)"/>
     <use xlink:href="#DejaVuSans-46" transform="translate(1726.806641 0)"/>
     <use xlink:href="#DejaVuSans-72" transform="translate(1777.076172 0)"/>
     <use xlink:href="#DejaVuSans-65" transform="translate(1815.939453 0)"/>
     <use xlink:href="#DejaVuSans-71" transform="translate(1877.462891 0)"/>
     <use xlink:href="#DejaVuSans-75" transform="translate(1940.939453 0)"/>
     <use xlink:href="#DejaVuSans-65" transform="translate(2004.318359 0)"/>
     <use xlink:href="#DejaVuSans-6e" transform="translate(2065.841797 0)"/>
     <use xlink:href="#DejaVuSans-63" transform="translate(2129.220703 0)"/>
     <use xlink:href="#DejaVuSans-79" transform="translate(2184.201172 0)"/>
     <use xlink:href="#DejaVuSans-20" transform="translate(2243.380859 0)"/>
     <use xlink:href="#DejaVuSans-76" transform="translate(2275.167969 0)"/>
     <use xlink:href="#DejaVuSans-73" transform="translate(2334.347656 0)"/>
     <use xlink:href="#DejaVuSans-2e" transform="translate(2386.447266 0)"/>
     <use xlink:href="#DejaVuSans-20" transform="translate(2418.234375 0)"/>
     <use xlink:href="#DejaVuSans-4f" transform="translate(2450.021484 0)"/>
     <use xlink:href="#DejaVuSans-66" transform="translate(2528.732422 0)"/>
     <use xlink:href="#DejaVuSans-66" transform="translate(2563.9375 0)"/>
     <use xlink:href="#DejaVuSans-73" transform="translate(2599.142578 0)"/>
     <use xlink:href="#DejaVuSans-65" transform="translate(2651.242188 0)"/>
     <use xlink:href="#DejaVuSans-74" transform="translate(2712.765625 0)"/>
     <use xlink:href="#DejaVuSans-20" transform="translate(2751.974609 0)"/>
     <use xlink:href="#DejaVuSans-43" transform="translate(2783.761719 0)"/>
     <use xlink:href="#DejaVuSans-68" transform="translate(2853.585938 0)"/>
     <use xlink:href="#DejaVuSans-61" transform="translate(2916.964844 0)"/>
     <use xlink:href="#DejaVuSans-72" transform="translate(2978.244141 0)"/>
     <use xlink:href="#DejaVuSans-67" transform="translate(3017.607422 0)"/>
     <use xlink:href="#DejaVuSans-65" transform="translate(3081.083984 0)"/>
    </g>
   </g>
   <g id="legend_1">
    <g id="patch_7">
     <path d="M 472.995313 74.3525 
L 695.295313 74.3525 
Q 697.295313 74.3525 697.295313 72.3525 
L 697.295313 29.318125 
Q 697.295313 27.318125 695.295313 27.318125 
L 472.995313 27.318125 
Q 470.995313 27.318125 470.995313 29.318125 
L 470.995313 72.3525 
Q 470.995313 74.3525 472.995313 74.3525 
z
" style="fill: #ffffff; opacity: 0.8; stroke: #cccccc; stroke-linejoin: miter"/>
    </g>
    <g id="line2d_41">
     <path d="M 474.995313 35.416562 
L 484.995313 35.416562 
L 494.995313 35.416562 
" style="fill: none; stroke: #1f77b4; stroke-width: 2; stroke-linecap: square"/>
    </g>
    <g id="text_22">
     <!-- $\Phi_{ext}$ = 0.0 $\Phi_0$ (Mean $f_{01}$ $\approx$ 5.21 GHz) -->
     <g transform="translate(502.995313 38.916562) scale(0.1 -0.1)">
      <defs>
       <path id="DejaVuSans-3a6" d="M 2206 3644 
Q 1738 3578 1431 3306 
Q 1025 2947 1025 2328 
Q 1025 1713 1431 1353 
Q 1738 1081 2206 1016 
L 2206 3644 
z
M 2838 1016 
Q 3306 1081 3613 1353 
Q 4013 1713 4013 2328 
Q 4013 2947 3613 3306 
Q 3306 3578 2838 3644 
L 2838 1016 
z
M 2206 494 
Q 1444 563 950 981 
Q 359 1481 359 2328 
Q 359 3175 950 3678 
Q 1441 4100 2206 4169 
L 2206 4666 
L 2838 4666 
L 2838 4169 
Q 3600 4097 4091 3678 
Q 4678 3175 4678 2328 
Q 4678 1484 4091 981 
Q 3600 563 2838 491 
L 2838 0 
L 2206 0 
L 2206 494 
z
" transform="scale(0.015625)"/>
       <path id="DejaVuSans-Oblique-65" d="M 3078 2063 
Q 3088 2113 3092 2166 
Q 3097 2219 3097 2272 
Q 3097 2653 2873 2875 
Q 2650 3097 2266 3097 
Q 1838 3097 1509 2826 
Q 1181 2556 1013 2059 
L 3078 2063 
z
M 3578 1613 
L 903 1613 
Q 884 1494 878 1425 
Q 872 1356 872 1306 
Q 872 872 1139 634 
Q 1406 397 1894 397 
Q 2269 397 2603 481 
Q 2938 566 3225 728 
L 3116 159 
Q 2806 34 2476 -28 
Q 2147 -91 1806 -91 
Q 1078 -91 686 257 
Q 294 606 294 1247 
Q 294 1794 489 2264 
Q 684 2734 1063 3103 
Q 1306 3334 1642 3459 
Q 1978 3584 2356 3584 
Q 2950 3584 3301 3228 
Q 3653 2872 3653 2272 
Q 3653 2128 3634 1964 
Q 3616 1800 3578 1613 
z
" transform="scale(0.015625)"/>
       <path id="DejaVuSans-Oblique-78" d="M 3841 3500 
L 2234 1784 
L 3219 0 
L 2559 0 
L 1819 1388 
L 531 0 
L -166 0 
L 1556 1844 
L 641 3500 
L 1300 3500 
L 1972 2234 
L 3144 3500 
L 3841 3500 
z
" transform="scale(0.015625)"/>
       <path id="DejaVuSans-Oblique-74" d="M 2706 3500 
L 2619 3053 
L 1472 3053 
L 1100 1153 
Q 1081 1047 1072 975 
Q 1063 903 1063 863 
Q 1063 663 1183 572 
Q 1303 481 1569 481 
L 2150 481 
L 2053 0 
L 1503 0 
Q 991 0 739 200 
Q 488 400 488 806 
Q 488 878 497 964 
Q 506 1050 525 1153 
L 897 3053 
L 409 3053 
L 500 3500 
L 978 3500 
L 1172 4494 
L 1747 4494 
L 1556 3500 
L 2706 3500 
z
" transform="scale(0.015625)"/>
       <path id="DejaVuSans-3d" d="M 678 2906 
L 4684 2906 
L 4684 2381 
L 678 2381 
L 678 2906 
z
M 678 1631 
L 4684 1631 
L 4684 1100 
L 678 1100 
L 678 1631 
z
" transform="scale(0.015625)"/>
       <path id="DejaVuSans-4d" d="M 628 4666 
L 1569 4666 
L 2759 1491 
L 3956 4666 
L 4897 4666 
L 4897 0 
L 4281 0 
L 4281 4097 
L 3078 897 
L 2444 897 
L 1241 4097 
L 1241 0 
L 628 0 
L 628 4666 
z
" transform="scale(0.015625)"/>
       <path id="DejaVuSans-2248" d="M 4684 1947 
L 4684 1388 
Q 4356 1144 4076 1036 
Q 3797 928 3494 928 
Q 3150 928 2694 1113 
Q 2663 1125 2641 1134 
Q 2622 1141 2575 1159 
Q 2091 1350 1797 1350 
Q 1522 1350 1253 1231 
Q 984 1113 678 850 
L 678 1409 
Q 1006 1653 1286 1761 
Q 1566 1869 1869 1869 
Q 2213 1869 2672 1684 
Q 2706 1669 2722 1663 
Q 2741 1656 2788 1638 
Q 3272 1447 3566 1447 
Q 3834 1447 4098 1564 
Q 4363 1681 4684 1947 
z
M 4684 3163 
L 4684 2606 
Q 4356 2359 4076 2251 
Q 3797 2144 3494 2144 
Q 3150 2144 2694 2328 
Q 2663 2341 2641 2350 
Q 2622 2356 2575 2375 
Q 2091 2566 1797 2566 
Q 1522 2566 1253 2447 
Q 984 2328 678 2069 
L 678 2625 
Q 1006 2869 1286 2976 
Q 1566 3084 1869 3084 
Q 2213 3084 2672 2900 
Q 2703 2888 2719 2881 
Q 2741 2872 2788 2853 
Q 3272 2663 3566 2663 
Q 3834 2663 4098 2780 
Q 4363 2897 4684 3163 
z
" transform="scale(0.015625)"/>
      </defs>
      <use xlink:href="#DejaVuSans-3a6" transform="translate(0 0.015625)"/>
      <use xlink:href="#DejaVuSans-Oblique-65" transform="translate(79.667969 -16.390625) scale(0.7)"/>
      <use xlink:href="#DejaVuSans-Oblique-78" transform="translate(122.734375 -16.390625) scale(0.7)"/>
      <use xlink:href="#DejaVuSans-Oblique-74" transform="translate(164.160156 -16.390625) scale(0.7)"/>
      <use xlink:href="#DejaVuSans-20" transform="translate(194.34082 0.015625)"/>
      <use xlink:href="#DejaVuSans-3d" transform="translate(226.12793 0.015625)"/>
      <use xlink:href="#DejaVuSans-20" transform="translate(309.916992 0.015625)"/>
      <use xlink:href="#DejaVuSans-30" transform="translate(341.704102 0.015625)"/>
      <use xlink:href="#DejaVuSans-2e" transform="translate(405.327148 0.015625)"/>
      <use xlink:href="#DejaVuSans-30" transform="translate(437.114258 0.015625)"/>
      <use xlink:href="#DejaVuSans-20" transform="translate(500.737305 0.015625)"/>
      <use xlink:href="#DejaVuSans-3a6" transform="translate(532.524414 0.015625)"/>
      <use xlink:href="#DejaVuSans-30" transform="translate(612.192383 -16.390625) scale(0.7)"/>
      <use xlink:href="#DejaVuSans-20" transform="translate(659.462891 0.015625)"/>
      <use xlink:href="#DejaVuSans-28" transform="translate(691.25 0.015625)"/>
      <use xlink:href="#DejaVuSans-4d" transform="translate(730.263672 0.015625)"/>
      <use xlink:href="#DejaVuSans-65" transform="translate(816.542969 0.015625)"/>
      <use xlink:href="#DejaVuSans-61" transform="translate(878.066406 0.015625)"/>
      <use xlink:href="#DejaVuSans-6e" transform="translate(939.345703 0.015625)"/>
      <use xlink:href="#DejaVuSans-20" transform="translate(1002.724609 0.015625)"/>
      <use xlink:href="#DejaVuSans-Oblique-66" transform="translate(1034.511719 0.015625)"/>
      <use xlink:href="#DejaVuSans-30" transform="translate(1069.716797 -16.390625) scale(0.7)"/>
      <use xlink:href="#DejaVuSans-31" transform="translate(1114.25293 -16.390625) scale(0.7)"/>
      <use xlink:href="#DejaVuSans-20" transform="translate(1161.523438 0.015625)"/>
      <use xlink:href="#DejaVuSans-2248" transform="translate(1212.792969 0.015625)"/>
      <use xlink:href="#DejaVuSans-20" transform="translate(1316.064453 0.015625)"/>
      <use xlink:href="#DejaVuSans-35" transform="translate(1347.851562 0.015625)"/>
      <use xlink:href="#DejaVuSans-2e" transform="translate(1411.474609 0.015625)"/>
      <use xlink:href="#DejaVuSans-32" transform="translate(1437.761719 0.015625)"/>
      <use xlink:href="#DejaVuSans-31" transform="translate(1501.384766 0.015625)"/>
      <use xlink:href="#DejaVuSans-20" transform="translate(1565.007812 0.015625)"/>
      <use xlink:href="#DejaVuSans-47" transform="translate(1596.794922 0.015625)"/>
      <use xlink:href="#DejaVuSans-48" transform="translate(1674.285156 0.015625)"/>
      <use xlink:href="#DejaVuSans-7a" transform="translate(1749.480469 0.015625)"/>
      <use xlink:href="#DejaVuSans-29" transform="translate(1801.970703 0.015625)"/>
     </g>
    </g>
    <g id="line2d_42">
     <path d="M 474.995313 50.094687 
L 484.995313 50.094687 
L 494.995313 50.094687 
" style="fill: none; stroke: #ff7f0e; stroke-width: 2; stroke-linecap: square"/>
    </g>
    <g id="text_23">
     <!-- $\Phi_{ext}$ = 0.4 $\Phi_0$ (Mean $f_{01}$ $\approx$ 2.82 GHz) -->
     <g transform="translate(502.995313 53.594687) scale(0.1 -0.1)">
      <use xlink:href="#DejaVuSans-3a6" transform="translate(0 0.015625)"/>
      <use xlink:href="#DejaVuSans-Oblique-65" transform="translate(79.667969 -16.390625) scale(0.7)"/>
      <use xlink:href="#DejaVuSans-Oblique-78" transform="translate(122.734375 -16.390625) scale(0.7)"/>
      <use xlink:href="#DejaVuSans-Oblique-74" transform="translate(164.160156 -16.390625) scale(0.7)"/>
      <use xlink:href="#DejaVuSans-20" transform="translate(194.34082 0.015625)"/>
      <use xlink:href="#DejaVuSans-3d" transform="translate(226.12793 0.015625)"/>
      <use xlink:href="#DejaVuSans-20" transform="translate(309.916992 0.015625)"/>
      <use xlink:href="#DejaVuSans-30" transform="translate(341.704102 0.015625)"/>
      <use xlink:href="#DejaVuSans-2e" transform="translate(405.327148 0.015625)"/>
      <use xlink:href="#DejaVuSans-34" transform="translate(437.114258 0.015625)"/>
      <use xlink:href="#DejaVuSans-20" transform="translate(500.737305 0.015625)"/>
      <use xlink:href="#DejaVuSans-3a6" transform="translate(532.524414 0.015625)"/>
      <use xlink:href="#DejaVuSans-30" transform="translate(612.192383 -16.390625) scale(0.7)"/>
      <use xlink:href="#DejaVuSans-20" transform="translate(659.462891 0.015625)"/>
      <use xlink:href="#DejaVuSans-28" transform="translate(691.25 0.015625)"/>
      <use xlink:href="#DejaVuSans-4d" transform="translate(730.263672 0.015625)"/>
      <use xlink:href="#DejaVuSans-65" transform="translate(816.542969 0.015625)"/>
      <use xlink:href="#DejaVuSans-61" transform="translate(878.066406 0.015625)"/>
      <use xlink:href="#DejaVuSans-6e" transform="translate(939.345703 0.015625)"/>
      <use xlink:href="#DejaVuSans-20" transform="translate(1002.724609 0.015625)"/>
      <use xlink:href="#DejaVuSans-Oblique-66" transform="translate(1034.511719 0.015625)"/>
      <use xlink:href="#DejaVuSans-30" transform="translate(1069.716797 -16.390625) scale(0.7)"/>
      <use xlink:href="#DejaVuSans-31" transform="translate(1114.25293 -16.390625) scale(0.7)"/>
      <use xlink:href="#DejaVuSans-20" transform="translate(1161.523438 0.015625)"/>
      <use xlink:href="#DejaVuSans-2248" transform="translate(1212.792969 0.015625)"/>
      <use xlink:href="#DejaVuSans-20" transform="translate(1316.064453 0.015625)"/>
      <use xlink:href="#DejaVuSans-32" transform="translate(1347.851562 0.015625)"/>
      <use xlink:href="#DejaVuSans-2e" transform="translate(1411.474609 0.015625)"/>
      <use xlink:href="#DejaVuSans-38" transform="translate(1440.636719 0.015625)"/>
      <use xlink:href="#DejaVuSans-32" transform="translate(1504.259766 0.015625)"/>
      <use xlink:href="#DejaVuSans-20" transform="translate(1567.882812 0.015625)"/>
      <use xlink:href="#DejaVuSans-47" transform="translate(1599.669922 0.015625)"/>
      <use xlink:href="#DejaVuSans-48" transform="translate(1677.160156 0.015625)"/>
      <use xlink:href="#DejaVuSans-7a" transform="translate(1752.355469 0.015625)"/>
      <use xlink:href="#DejaVuSans-29" transform="translate(1804.845703 0.015625)"/>
     </g>
    </g>
    <g id="line2d_43">
     <path d="M 474.995313 64.772812 
L 484.995313 64.772812 
L 494.995313 64.772812 
" style="fill: none; stroke: #2ca02c; stroke-width: 2; stroke-linecap: square"/>
    </g>
    <g id="text_24">
     <!-- $\Phi_{ext}$ = 0.49 $\Phi_0$ (Mean $f_{01}$ $\approx$ 0.76 GHz) -->
     <g transform="translate(502.995313 68.272812) scale(0.1 -0.1)">
      <defs>
       <path id="DejaVuSans-39" d="M 703 97 
L 703 672 
Q 941 559 1184 500 
Q 1428 441 1663 441 
Q 2288 441 2617 861 
Q 2947 1281 2994 2138 
Q 2813 1869 2534 1725 
Q 2256 1581 1919 1581 
Q 1219 1581 811 2004 
Q 403 2428 403 3163 
Q 403 3881 828 4315 
Q 1253 4750 1959 4750 
Q 2769 4750 3195 4129 
Q 3622 3509 3622 2328 
Q 3622 1225 3098 567 
Q 2575 -91 1691 -91 
Q 1453 -91 1209 -44 
Q 966 3 703 97 
z
M 1959 2075 
Q 2384 2075 2632 2365 
Q 2881 2656 2881 3163 
Q 2881 3666 2632 3958 
Q 2384 4250 1959 4250 
Q 1534 4250 1286 3958 
Q 1038 3666 1038 3163 
Q 1038 2656 1286 2365 
Q 1534 2075 1959 2075 
z
" transform="scale(0.015625)"/>
      </defs>
      <use xlink:href="#DejaVuSans-3a6" transform="translate(0 0.015625)"/>
      <use xlink:href="#DejaVuSans-Oblique-65" transform="translate(79.667969 -16.390625) scale(0.7)"/>
      <use xlink:href="#DejaVuSans-Oblique-78" transform="translate(122.734375 -16.390625) scale(0.7)"/>
      <use xlink:href="#DejaVuSans-Oblique-74" transform="translate(164.160156 -16.390625) scale(0.7)"/>
      <use xlink:href="#DejaVuSans-20" transform="translate(194.34082 0.015625)"/>
      <use xlink:href="#DejaVuSans-3d" transform="translate(226.12793 0.015625)"/>
      <use xlink:href="#DejaVuSans-20" transform="translate(309.916992 0.015625)"/>
      <use xlink:href="#DejaVuSans-30" transform="translate(341.704102 0.015625)"/>
      <use xlink:href="#DejaVuSans-2e" transform="translate(405.327148 0.015625)"/>
      <use xlink:href="#DejaVuSans-34" transform="translate(437.114258 0.015625)"/>
      <use xlink:href="#DejaVuSans-39" transform="translate(500.737305 0.015625)"/>
      <use xlink:href="#DejaVuSans-20" transform="translate(564.360352 0.015625)"/>
      <use xlink:href="#DejaVuSans-3a6" transform="translate(596.147461 0.015625)"/>
      <use xlink:href="#DejaVuSans-30" transform="translate(675.81543 -16.390625) scale(0.7)"/>
      <use xlink:href="#DejaVuSans-20" transform="translate(723.085938 0.015625)"/>
      <use xlink:href="#DejaVuSans-28" transform="translate(754.873047 0.015625)"/>
      <use xlink:href="#DejaVuSans-4d" transform="translate(793.886719 0.015625)"/>
      <use xlink:href="#DejaVuSans-65" transform="translate(880.166016 0.015625)"/>
      <use xlink:href="#DejaVuSans-61" transform="translate(941.689453 0.015625)"/>
      <use xlink:href="#DejaVuSans-6e" transform="translate(1002.96875 0.015625)"/>
      <use xlink:href="#DejaVuSans-20" transform="translate(1066.347656 0.015625)"/>
      <use xlink:href="#DejaVuSans-Oblique-66" transform="translate(1098.134766 0.015625)"/>
      <use xlink:href="#DejaVuSans-30" transform="translate(1133.339844 -16.390625) scale(0.7)"/>
      <use xlink:href="#DejaVuSans-31" transform="translate(1177.875977 -16.390625) scale(0.7)"/>
      <use xlink:href="#DejaVuSans-20" transform="translate(1225.146484 0.015625)"/>
      <use xlink:href="#DejaVuSans-2248" transform="translate(1276.416016 0.015625)"/>
      <use xlink:href="#DejaVuSans-20" transform="translate(1379.6875 0.015625)"/>
      <use xlink:href="#DejaVuSans-30" transform="translate(1411.474609 0.015625)"/>
      <use xlink:href="#DejaVuSans-2e" transform="translate(1475.097656 0.015625)"/>
      <use xlink:href="#DejaVuSans-37" transform="translate(1499.134766 0.015625)"/>
      <use xlink:href="#DejaVuSans-36" transform="translate(1562.757812 0.015625)"/>
      <use xlink:href="#DejaVuSans-20" transform="translate(1626.380859 0.015625)"/>
      <use xlink:href="#DejaVuSans-47" transform="translate(1658.167969 0.015625)"/>
      <use xlink:href="#DejaVuSans-48" transform="translate(1735.658203 0.015625)"/>
      <use xlink:href="#DejaVuSans-7a" transform="translate(1810.853516 0.015625)"/>
      <use xlink:href="#DejaVuSans-29" transform="translate(1863.34375 0.015625)"/>
     </g>
    </g>
   </g>
  </g>
 </g>
 <defs>
  <clipPath id="paa33f8fa4f">
   <rect x="58.545313" y="22.318125" width="643.75" height="360.784"/>
  </clipPath>
 </defs>
</svg>
